<?xml version="1.0" encoding="UTF-8" standalone="no"?>
<!-- Created with Inkscape (http://www.inkscape.org/) -->

<svg
   xmlns:dc="http://purl.org/dc/elements/1.1/"
   xmlns:cc="http://creativecommons.org/ns#"
   xmlns:rdf="http://www.w3.org/1999/02/22-rdf-syntax-ns#"
   xmlns:svg="http://www.w3.org/2000/svg"
   xmlns="http://www.w3.org/2000/svg"
   xmlns:sodipodi="http://sodipodi.sourceforge.net/DTD/sodipodi-0.dtd"
   xmlns:inkscape="http://www.inkscape.org/namespaces/inkscape"
   version="1.1"
   id="svg2"
   xml:space="preserve"
   width="733"
   height="430"
   viewBox="0 0 732.99998 430"
   sodipodi:docname="dexilip-herp.svg"
   inkscape:version="0.92.4 (unknown)"><metadata
     id="metadata8"><rdf:RDF><cc:Work
         rdf:about=""><dc:format>image/svg+xml</dc:format><dc:type
           rdf:resource="http://purl.org/dc/dcmitype/StillImage" /><dc:title></dc:title></cc:Work></rdf:RDF></metadata><defs
     id="defs6"><clipPath
       clipPathUnits="userSpaceOnUse"
       id="clipPath18"><path
         d="M 0,606.619 H 853.228 V 0 H 0 Z"
         id="path16"
         inkscape:connector-curvature="0" /></clipPath></defs><sodipodi:namedview
     pagecolor="#ffffff"
     bordercolor="#666666"
     borderopacity="1"
     objecttolerance="10"
     gridtolerance="10"
     guidetolerance="10"
     inkscape:pageopacity="0"
     inkscape:pageshadow="2"
     inkscape:window-width="1920"
     inkscape:window-height="1015"
     id="namedview4"
     showgrid="false"
     inkscape:zoom="1.1671247"
     inkscape:cx="396.03302"
     inkscape:cy="167.4546"
     inkscape:window-x="1920"
     inkscape:window-y="0"
     inkscape:window-maximized="1"
     inkscape:current-layer="g10" /><g
     id="g10"
     inkscape:groupmode="layer"
     inkscape:label="Dexilip_Herp_logo"
     transform="matrix(1.3333333,0,0,-1.3333333,0,430.00001)"><g
       id="g12"
       transform="translate(-159.36601,-123.38014)"><g
         id="g14"
         clip-path="url(#clipPath18)"><g
           id="g20"
           transform="translate(189.8877,333.4409)"><path
             d="m 0,0 h 25.445 c 16.545,0 32.351,10.18 32.351,38.901 0,26.165 -9.266,42.894 -37.441,42.894 H 0 Z m -28.542,105.78 h 55.988 c 33.618,0 58.879,-21.268 58.879,-64.157 0,-37.621 -19.258,-65.617 -58.879,-65.617 h -55.988 z"
             style="fill:#e60103;fill-opacity:1;fill-rule:nonzero;stroke:none"
             id="path22"
             inkscape:connector-curvature="0" /></g><g
           id="g24"
           transform="translate(347.4468,366.5181)"><path
             d="M 0,0 C -2.359,13.084 -7.99,19.997 -20.534,19.997 -37.253,19.997 -41.435,7.274 -41.99,0 Z m -41.99,-16.357 c 0.735,-16.541 8.551,-23.811 23.095,-23.811 10.349,0 18.716,6.361 20.35,12.181 h 22.723 c -7.27,-22.356 -22.723,-31.627 -43.982,-31.627 -29.625,0 -47.984,20.36 -47.984,49.439 0,28.161 19.446,49.617 47.984,49.617 31.99,0 47.612,-26.903 45.62,-55.799 z"
             style="fill:#e60103;fill-opacity:1;fill-rule:nonzero;stroke:none"
             id="path26"
             inkscape:connector-curvature="0" /></g><g
           id="g28"
           transform="translate(403.416,358.8901)"><path
             d="M 0,0 -30.896,44.528 H -1.45 L 15.086,19.992 31.439,44.528 H 59.976 L 29.084,0.546 63.799,-49.443 H 34.353 l -19.629,29.63 -19.635,-29.63 h -28.896 z"
             style="fill:#e60103;fill-opacity:1;fill-rule:nonzero;stroke:none"
             id="path30"
             inkscape:connector-curvature="0" /></g><path
           d="m 468.657,403.418 h 25.802 v -93.971 h -25.802 z m 25.801,14.535 h -25.802 v 21.268 h 25.802 z"
           style="fill:#e60103;fill-opacity:1;fill-rule:nonzero;stroke:none"
           id="path32"
           inkscape:connector-curvature="0" /><path
           d="m 506.456,439.221 h 25.813 V 309.447 h -25.813 z"
           style="fill:#e60103;fill-opacity:1;fill-rule:nonzero;stroke:none"
           id="path34"
           inkscape:connector-curvature="0" /><path
           d="m 544.26,403.418 h 25.802 V 309.447 H 544.26 Z m 25.802,14.535 H 544.26 v 21.268 h 25.802 z"
           style="fill:#e60103;fill-opacity:1;fill-rule:nonzero;stroke:none"
           id="path36"
           inkscape:connector-curvature="0" /><g
           id="g38"
           transform="translate(651.1235,356.1641)"><path
             d="m 0,0 c 0,15.077 -5.999,30.351 -22.54,30.351 -16.903,0 -22.351,-15.086 -22.351,-30.351 0,-15.27 5.806,-29.814 22.531,-29.814 C -5.457,-29.814 0,-15.27 0,0 m -69.799,47.254 h 24.541 V 35.252 h 0.367 c 6.357,10.185 16.353,14.544 27.983,14.544 29.441,0 42.71,-23.81 42.71,-50.526 0,-25.082 -13.631,-48.53 -41.255,-48.53 -11.451,0 -21.815,4.906 -28.176,14.177 h -0.357 v -44.716 h -25.813 z"
             style="fill:#e60103;fill-opacity:1;fill-rule:nonzero;stroke:none"
             id="path40"
             inkscape:connector-curvature="0" /></g><g
           id="g42"
           transform="translate(683.2583,427.0498)"><path
             d="m 0,0 h 3.81 c 2.461,0 4.209,0.353 4.209,2.98 0,2.27 -2.463,2.67 -4.421,2.67 H 0 Z m -4.266,8.993 h 8.127 c 5.391,0 8.428,-1.695 8.428,-6.375 0,-3.951 -2.515,-5.499 -5.659,-5.759 l 5.758,-9.412 H 7.915 L 2.67,-3.343 H 0 v -9.21 h -4.266 z m 7.657,-25.967 c 7.975,0 14.506,6.375 14.506,15.166 0,8.744 -6.531,15.077 -14.506,15.077 -8.071,0 -14.498,-6.333 -14.498,-15.077 0,-8.791 6.427,-15.166 14.498,-15.166 m 0,34.348 c 10.438,0 19.742,-7.51 19.742,-19.182 0,-11.724 -9.304,-19.272 -19.742,-19.272 -10.43,0 -19.748,7.548 -19.748,19.272 0,11.672 9.318,19.182 19.748,19.182"
             style="fill:#e60103;fill-opacity:1;fill-rule:nonzero;stroke:none"
             id="path44"
             inkscape:connector-curvature="0" /></g><g
           id="g46"
           transform="translate(298.3501,214.0796)"><path
             d="m 0,0 c -0.564,-2.63 -1.081,-5.213 -1.55,-7.749 -0.376,-2.63 -0.704,-5.121 -0.986,-7.467 -0.471,-4.416 -0.518,-8.079 -0.141,-10.99 0.374,-2.912 1.361,-4.368 2.959,-4.368 0.468,0 1.078,2.536 1.831,7.609 0.751,5.072 1.455,11.553 2.114,19.443 0.281,4.227 0.515,8.781 0.704,13.667 0.092,2.441 0.141,4.882 0.141,7.326 0,-0.189 -0.049,-0.377 -0.141,-0.564 C 3.051,11.741 1.409,6.105 0,0 m 90.594,115.109 c -4.698,-0.752 -8.784,-2.771 -12.258,-6.058 -3.57,-3.289 -6.622,-7.515 -9.158,-12.68 C 64.388,86.883 61.147,75.048 59.457,60.866 58.704,54.759 58.14,48.654 57.766,42.55 c 3.945,1.033 7.467,2.254 10.567,3.663 4.037,1.691 6.573,4.037 7.608,7.045 0.374,0.563 0.892,0.845 1.55,0.845 0.187,0 0.374,-0.048 0.563,-0.141 0.938,-0.189 1.55,-0.658 1.832,-1.409 -1.504,-3.852 -4.416,-6.811 -8.735,-8.876 -3.945,-1.972 -8.503,-3.522 -13.667,-4.65 -0.282,-6.952 -0.377,-13.902 -0.282,-20.852 0.093,-6.294 0.328,-12.493 0.705,-18.597 0.468,-6.013 0.986,-11.648 1.55,-16.908 1.219,-9.957 2.628,-18.267 4.227,-24.938 1.69,-6.668 3.381,-10.426 5.071,-11.271 1.691,-1.032 3.287,-0.845 4.791,0.563 1.409,1.41 2.206,3.1 2.395,5.073 0.656,-0.282 1.173,-0.423 1.55,-0.423 0.281,0 0.61,-0.234 0.986,-0.704 -0.095,-1.783 -1.316,-3.664 -3.663,-5.636 -1.316,-1.22 -2.726,-1.832 -4.227,-1.832 -1.035,0 -2.113,0.282 -3.24,0.846 -2.726,1.503 -5.213,4.134 -7.468,7.89 -2.241,3.852 -4.15,8.502 -5.721,13.948 -2.961,10.049 -4.859,22.167 -5.691,36.35 -0.189,4.509 -0.282,9.064 -0.282,13.667 0,6.95 0.282,13.948 0.845,20.993 -0.563,-0.095 -1.127,-0.19 -1.69,-0.282 -3.194,-0.471 -6.389,-0.986 -9.581,-1.55 -4.885,-0.845 -9.534,-1.785 -13.948,-2.818 -3.007,-0.753 -5.73,-1.69 -8.172,-2.817 v -3.1 -0.423 C 15.639,19.63 15.357,13.291 14.793,7.186 13.854,-3.898 12.117,-13.292 9.581,-20.993 7.044,-28.696 4.086,-32.639 0.704,-32.828 H 0.422 c -2.63,-0.092 -4.226,2.162 -4.79,6.763 -0.471,4.696 -0.281,10.237 0.564,16.626 0.75,5.071 1.831,10.236 3.24,15.498 1.409,5.164 2.911,9.627 4.509,13.384 0.374,0.938 0.797,1.784 1.268,2.536 v 3.1 c 0,11.646 -0.658,23.199 -1.973,34.66 -1.316,11.553 -3.758,21.085 -7.326,28.601 -1.973,4.132 -4.275,7.419 -6.904,9.863 -2.725,2.441 -5.871,3.755 -9.44,3.944 -3.852,0.282 -7.421,-0.189 -10.708,-1.408 -3.381,-1.222 -6.434,-2.913 -9.157,-5.072 -5.167,-4.135 -9.253,-9.535 -12.258,-16.203 -3.008,-6.576 -4.698,-13.011 -5.072,-19.302 -0.189,-3.664 0.046,-7.281 0.704,-10.849 0.656,-3.664 1.596,-7.14 2.818,-10.426 2.441,-6.012 5.869,-10.99 10.285,-14.935 4.319,-3.945 9.299,-5.73 14.935,-5.354 5.072,0.374 9.11,3.381 12.116,9.017 2.911,5.636 4.509,11.459 4.791,17.471 0.282,4.977 -0.471,9.345 -2.254,13.103 -1.691,3.663 -4.557,5.4 -8.595,5.213 -3.381,-0.19 -5.966,-2.349 -7.749,-6.481 -1.785,-4.04 -2.067,-7.89 -0.845,-11.553 0.374,-1.222 0.986,-2.349 1.832,-3.382 0.75,-1.034 1.736,-1.88 2.958,-2.536 0,-1.127 -0.376,-1.88 -1.127,-2.254 -0.658,-0.471 -1.739,-0.471 -3.241,0 -2.349,3.474 -3.522,7.372 -3.522,11.694 0,4.319 0.938,8.031 2.818,11.131 1.033,1.596 2.301,2.958 3.804,4.085 1.501,1.033 3.287,1.643 5.354,1.832 2.536,0.282 4.791,0 6.763,-0.845 1.878,-0.753 3.474,-1.926 4.79,-3.523 3.1,-3.663 4.555,-8.83 4.368,-15.498 -0.19,-6.575 -1.739,-12.634 -4.649,-18.175 -1.881,-3.758 -4.322,-6.904 -7.327,-9.44 -2.913,-2.536 -6.294,-3.898 -10.144,-4.086 -3.571,-0.189 -6.858,0.328 -9.863,1.55 -3.1,1.22 -5.917,2.959 -8.453,5.213 -4.698,4.132 -8.313,9.722 -10.849,16.766 -2.067,5.823 -3.1,11.882 -3.1,18.176 0,1.219 0.047,2.487 0.141,3.804 0.938,13.618 5.26,24.656 12.962,33.109 7.327,7.89 16.062,11.835 26.206,11.835 h 1.832 c 3.85,-0.189 7.278,-1.127 10.285,-2.818 3.1,-1.785 5.917,-4.134 8.454,-7.044 4.508,-5.449 8.077,-12.54 10.708,-21.275 2.536,-8.83 4.273,-18.129 5.212,-27.896 0.375,-4.604 0.61,-9.207 0.705,-13.808 1.966,0.938 4.213,1.783 6.741,2.536 4.306,1.409 8.845,2.582 13.62,3.523 3.089,0.655 6.178,1.267 9.268,1.831 1.405,0.282 2.761,0.564 4.073,0.845 0.187,1.409 0.374,2.865 0.561,4.368 0.749,6.199 1.731,12.304 2.95,18.316 1.216,5.917 2.715,11.505 4.494,16.766 3.284,9.955 7.511,18.316 12.678,25.079 5.164,6.763 11.364,10.941 18.597,12.54 0.751,-0.095 1.269,-0.377 1.55,-0.846 0.375,-0.564 0.564,-1.175 0.564,-1.832"
             style="fill:#1b1b1f;fill-opacity:1;fill-rule:nonzero;stroke:none"
             id="path48"
             inkscape:connector-curvature="0" /></g><g
           id="g50"
           transform="translate(391.6206,222.2515)"><path
             d="m 0,0 c 4.132,2.723 7.373,5.682 9.722,8.876 1.501,2.065 2.723,4.179 3.663,6.34 0.845,2.066 1.455,4.133 1.832,6.2 0.563,3.663 0.327,6.903 -0.705,9.721 -0.94,2.818 -2.444,4.461 -4.509,4.932 C 8.218,36.538 6.481,36.351 4.791,35.505 3.1,34.565 1.501,33.11 0,31.137 -2.725,27.567 -4.979,22.684 -6.763,16.484 -8.643,10.378 -9.629,4.273 -9.722,-1.832 V -4.79 C -5.966,-3.571 -2.725,-1.972 0,0 m -5.495,-27.474 c 3.005,-7.516 6.763,-11.646 11.272,-12.399 3.099,-0.374 6.151,0.472 9.158,2.537 3.005,2.065 5.917,4.79 8.735,8.171 4.132,5.072 7.749,10.66 10.849,16.767 3.1,6.009 5.213,10.331 6.34,12.961 0.469,0 0.987,-0.094 1.549,-0.281 0.47,-0.095 0.939,-0.282 1.41,-0.564 -0.471,-1.221 -1.128,-2.771 -1.972,-4.649 -0.941,-1.973 -1.973,-4.04 -3.1,-6.199 -2.162,-4.227 -4.745,-8.595 -7.749,-13.103 -3.008,-4.603 -6.294,-8.502 -9.863,-11.695 -2.444,-2.067 -4.931,-3.663 -7.467,-4.79 -1.973,-0.845 -3.994,-1.268 -6.059,-1.268 H 5.777 c -7.14,0.94 -13.434,4.837 -18.88,11.694 -5.072,6.574 -7.608,15.591 -7.608,27.052 v 1.55 c 0.092,7.795 1.55,14.98 4.368,21.556 2.818,6.573 6.386,11.553 10.707,14.935 2.347,1.783 4.883,3.005 7.609,3.663 1.219,0.282 2.441,0.423 3.663,0.423 1.501,0 3.005,-0.236 4.509,-0.705 2.441,-0.658 4.367,-2.536 5.776,-5.636 C 17.33,29.539 17.799,25.971 17.33,21.838 17.141,19.677 16.625,17.422 15.78,15.076 14.935,12.727 13.713,10.378 12.117,8.031 9.673,4.555 6.292,1.361 1.973,-1.55 -1.316,-3.711 -5.213,-5.543 -9.722,-7.044 c 0.375,-7.516 1.784,-14.325 4.227,-20.43"
             style="fill:#1b1b1f;fill-opacity:1;fill-rule:nonzero;stroke:none"
             id="path52"
             inkscape:connector-curvature="0" /></g><g
           id="g54"
           transform="translate(443.0464,267.478)"><path
             d="m 0,0 c -2.912,-0.189 -4.039,-2.208 -3.381,-6.058 0.469,-2.818 1.924,-5.354 4.367,-7.609 0.469,2.065 0.938,4.038 1.41,5.918 C 3.523,-2.395 2.724,0.188 0,0 m 4.227,-16.062 c 2.441,-1.598 5.447,-2.725 9.017,-3.381 3.475,-0.753 7.56,-0.753 12.258,0 1.69,-0.095 2.347,-2.162 1.973,-6.2 -0.283,-4.039 -1.081,-8.924 -2.396,-14.652 -0.753,-3.194 -1.503,-6.481 -2.254,-9.863 -0.846,-3.476 -1.644,-6.904 -2.395,-10.285 -1.88,-7.89 -3.195,-14.983 -3.945,-21.275 -0.753,-6.386 0.187,-9.908 2.818,-10.567 1.409,-0.374 2.91,-0.281 4.509,0.282 1.501,0.564 3.05,1.458 4.649,2.677 3.005,2.349 6.059,5.636 9.158,9.863 3.005,4.132 5.822,8.453 8.453,12.962 2.724,4.601 5.073,8.968 7.045,13.103 1.973,4.037 3.381,7.091 4.227,9.158 0.656,0.092 1.219,0.092 1.69,0 0.47,0 0.987,-0.236 1.55,-0.705 -0.563,-1.222 -1.268,-2.771 -2.113,-4.649 -0.845,-1.88 -1.785,-3.899 -2.818,-6.058 -2.067,-4.135 -4.463,-8.549 -7.185,-13.244 -2.819,-4.791 -5.825,-9.159 -9.018,-13.104 -3.289,-3.944 -6.67,-7.137 -10.143,-9.58 -2.631,-1.691 -5.214,-2.536 -7.75,-2.536 -0.94,0 -1.88,0.095 -2.818,0.282 -1.785,0.471 -3.289,1.409 -4.509,2.817 -1.316,1.504 -2.302,3.336 -2.959,5.495 -1.408,4.038 -2.02,9.064 -1.831,15.076 0.187,6.009 0.845,12.258 1.972,18.738 0.939,5.26 2.114,10.473 3.524,15.64 1.408,5.164 2.817,9.767 4.226,13.807 -4.416,-0.564 -8.361,-0.471 -11.835,0.282 -1.69,0.374 -3.289,0.797 -4.79,1.268 -1.316,-4.227 -2.959,-8.595 -4.932,-13.103 -2.536,-6.012 -4.556,-10.662 -6.058,-13.949 -0.281,0.188 -0.705,0.375 -1.268,0.564 -0.564,0.282 -1.127,0.515 -1.691,0.704 0.937,2.16 2.254,5.165 3.945,9.017 1.596,3.946 3.192,8.032 4.791,12.258 0.75,2.065 1.408,4.086 1.972,6.059 -0.282,0.187 -0.564,0.374 -0.845,0.563 -1.972,1.127 -3.617,2.488 -4.931,4.086 -1.317,1.596 -2.254,3.192 -2.819,4.79 -1.034,3.006 -0.799,5.729 0.705,8.172 1.408,2.442 4.086,3.756 8.031,3.946 h 0.422 C 1.269,2.396 2.348,2.065 3.1,1.409 4.038,0.751 4.696,-0.189 5.072,-1.409 5.637,-3.1 5.777,-5.261 5.495,-7.89 5.213,-10.426 4.696,-13.103 3.945,-15.921 Z"
             style="fill:#1b1b1f;fill-opacity:1;fill-rule:nonzero;stroke:none"
             id="path56"
             inkscape:connector-curvature="0" /></g><g
           id="g58"
           transform="translate(522.6519,189.1416)"><path
             d="m 0,0 c -2.726,-0.94 -3.477,-2.443 -2.255,-4.508 1.22,-1.973 3.333,-1.55 6.341,1.268 1.69,1.595 3.286,3.663 4.79,6.199 C 5.213,1.832 2.254,0.846 0,0 m -19.021,6.34 c -1.785,-10.708 -2.958,-21.226 -3.522,-31.56 -0.563,-10.331 -0.33,-18.738 0.704,-25.219 0.564,-3.474 1.36,-6.246 2.396,-8.313 1.127,-2.065 2.487,-3.1 4.086,-3.1 1.783,0 2.676,3.43 2.676,10.286 -0.094,6.857 -0.704,15.405 -1.831,25.642 -0.564,5.543 -1.222,11.366 -1.972,17.47 -0.753,5.542 -1.504,11.037 -2.255,16.485 -0.095,-0.564 -0.19,-1.127 -0.282,-1.691 M 17.33,33.533 c 0.092,2.441 0,4.977 -0.282,7.608 -0.282,2.629 -0.704,5.165 -1.269,7.608 -1.127,4.601 -2.771,8.359 -4.93,11.272 -2.162,2.91 -4.932,3.709 -8.313,2.395 -1.504,-0.659 -3.054,-1.927 -4.649,-3.804 -1.504,-1.973 -2.913,-4.368 -4.228,-7.186 -2.535,-5.261 -4.885,-11.742 -7.044,-19.443 1.032,-6.763 2.065,-13.761 3.1,-20.993 0.845,-6.389 1.596,-12.775 2.254,-19.161 0.656,-6.292 1.127,-12.305 1.409,-18.035 0.563,-10.613 0.233,-19.536 -0.986,-26.77 -1.127,-7.137 -3.712,-10.8 -7.749,-10.989 h -0.283 c -3.006,0 -5.26,2.254 -6.762,6.763 -1.598,4.698 -2.536,10.756 -2.818,18.175 -0.189,3.945 -0.189,8.22 0,12.821 0.187,4.603 0.515,9.348 0.987,14.23 0.844,9.392 2.254,18.926 4.226,28.601 -1.222,9.392 -2.49,18.363 -3.805,26.911 -1.502,10.519 -2.535,18.549 -3.099,24.093 0.282,2.16 1.361,3.474 3.241,3.945 0.374,0.092 0.75,0.092 1.127,0 1.314,0 2.396,-0.658 3.24,-1.973 0.751,-5.448 2.019,-13.574 3.805,-24.374 0.374,-2.349 0.75,-4.745 1.127,-7.186 1.409,4.132 2.864,7.937 4.367,11.413 1.878,4.131 3.851,7.559 5.918,10.285 2.065,2.723 4.227,4.414 6.481,5.072 2.723,0.938 5.259,1.173 7.608,0.704 2.441,-0.471 4.649,-1.457 6.622,-2.958 3.663,-2.818 6.527,-6.953 8.595,-12.399 2.064,-5.449 3.005,-11.084 2.817,-16.907 -0.095,-4.698 -0.893,-9.207 -2.394,-13.526 -1.222,-3.571 -2.678,-6.857 -4.369,-9.862 1.033,0.469 2.114,0.986 3.241,1.55 4.414,2.065 8.547,4.741 12.399,8.03 3.944,3.287 7.044,7.56 9.299,12.822 0.656,-0.095 1.267,-0.19 1.831,-0.282 0.563,-0.095 0.892,-0.282 0.986,-0.564 C 46.776,25.784 43.723,21.227 39.872,17.752 36.02,14.276 31.888,11.458 27.474,9.299 24.656,7.982 21.838,6.855 19.021,5.917 18.831,5.823 18.69,5.777 18.598,5.777 14.84,0.233 10.708,-3.804 6.199,-6.34 1.127,-9.25 -2.35,-9.063 -4.227,-5.776 c -0.94,1.501 -1.222,2.818 -0.845,3.944 0.468,1.128 1.36,2.114 2.676,2.959 2.629,1.691 6.433,3.192 11.413,4.509 0.563,0.093 1.128,0.233 1.691,0.423 0.563,1.219 1.127,2.536 1.69,3.944 1.41,3.193 2.537,6.81 3.381,10.85 0.939,3.944 1.456,8.171 1.551,12.68"
             style="fill:#1b1b1f;fill-opacity:1;fill-rule:nonzero;stroke:none"
             id="path60"
             inkscape:connector-curvature="0" /></g></g></g></g></svg>