<svg id="Vrstva_1" data-name="Vrstva 1" xmlns="http://www.w3.org/2000/svg" viewBox="0 0 536.65 167.31"><defs><style>.cls-1{fill:#832080;}.cls-2{fill:#f39208;}</style></defs><title>Uxitol25_logo</title><path class="cls-1" d="M195.71,334.84c-22.53,0-40.43-15.28-40.43-38.58V224h21.45V295.5c0,12.65,7.41,20.21,19,20.21s19.13-7.56,19.13-20.21V224h21.3v72.22C236.14,319.57,218.24,334.84,195.71,334.84Z" transform="translate(-155.28 -221.65)"/><path class="cls-1" d="M294.93,333.92l-14.81-24.07-14.66,24.07H241.39l27.78-41-26.7-39.35h24.07l13.58,23,13.73-23h24.07l-26.7,39.35,27.78,41Z" transform="translate(-155.28 -221.65)"/><path class="cls-1" d="M324.09,239.79V223.43h20.52v16.36Zm.31,94.13v-80.4h20.06v80.4Z" transform="translate(-155.28 -221.65)"/><path class="cls-1" d="M384.27,333.92c-16.36,0-23.3-11.57-23.3-23V271.11h-8.49V255.84H361V232.07H381v23.76h14.2v15.28H381v38.58c0,4.63,2.16,7.25,6.94,7.25h7.25v17Z" transform="translate(-155.28 -221.65)"/><path class="cls-1" d="M460.81,325c-4.94,5.25-13.12,9.88-25,9.88S415.9,330.22,411,325c-7.25-7.56-9.1-16.67-9.1-31.32,0-14.51,1.85-23.61,9.1-31.17,4.94-5.25,13-9.88,24.84-9.88s20.06,4.63,25,9.88c7.25,7.56,9.1,16.67,9.1,31.17C469.91,308.3,468.06,317.41,460.81,325ZM445.22,274.2a12.68,12.68,0,0,0-9.41-3.55,12.32,12.32,0,0,0-9.26,3.55c-4.17,4.17-4.63,11.11-4.63,19.44s.46,15.43,4.63,19.6a12.32,12.32,0,0,0,9.26,3.55,12.69,12.69,0,0,0,9.41-3.55c4.17-4.17,4.63-11.26,4.63-19.6S449.39,278.37,445.22,274.2Z" transform="translate(-155.28 -221.65)"/><path class="cls-1" d="M504,333.92c-16.51,0-23.46-11.57-23.46-23V224h20.06v85.64c0,4.78,2,7.25,7.1,7.25h7.72v17Z" transform="translate(-155.28 -221.65)"/><path class="cls-2" d="M521.6,333.92V315.86l41-47.68c4-4.78,5.71-8.18,5.71-13.27,0-8.18-4.78-13.73-13.27-13.73-6.63,0-13.42,3.4-13.42,14H521.6c0-20.06,14.66-32.1,33.49-32.1,19.44,0,33.33,12.19,33.33,31.94,0,10.65-4.17,16.36-11.73,25.15L546,315.86h42.44v18.05Z" transform="translate(-155.28 -221.65)"/><path class="cls-2" d="M655.08,325.89c-4.94,4.94-12.81,9-24.23,9s-19.75-4-24.54-8.8c-6.79-6.79-8.33-14.81-9-22.84h20.06c1.08,8.64,5.09,13.58,13.42,13.58,3.86,0,7.1-1.08,9.57-3.55,3.55-3.55,4.32-9.41,4.32-16.36,0-12.65-3.7-19.75-13.43-19.75-8.18,0-11.88,4.63-13.27,9H599.68V224h62.65V242.1H617.89v23.61c2.93-2.78,9.1-5.56,16.51-5.56,9.1,0,16,2.93,20.52,7.41,8.64,8.64,9.88,19,9.88,29.32C664.8,309.23,663.1,317.87,655.08,325.89Z" transform="translate(-155.28 -221.65)"/><path class="cls-2" d="M680.26,245a11.68,11.68,0,1,1,11.68-11.68A11.67,11.67,0,0,1,680.26,245Zm0-20.74a9.07,9.07,0,1,0,8.9,9.06A8.8,8.8,0,0,0,680.26,224.27Zm2.1,15.26-2.26-4.81h-1.32v4.81H676V227.11h5.06a3.93,3.93,0,0,1,4.13,3.9,3.49,3.49,0,0,1-2.29,3.29l2.61,5.23Zm-1.64-10.13h-1.94v3.23h1.94a1.62,1.62,0,1,0,0-3.23Z" transform="translate(-155.28 -221.65)"/><path class="cls-2" d="M174.42,380.74c-5.75,0-10.11-1.22-13.83-5l4.79-4.79c2.39,2.39,5.64,3.19,9.15,3.19,4.36,0,6.7-1.65,6.7-4.68a4.22,4.22,0,0,0-1.17-3.19,5.64,5.64,0,0,0-3.35-1.33l-4.57-.64c-3.24-.48-5.64-1.49-7.34-3.14a10,10,0,0,1-2.71-7.45c0-6.76,5-11.49,13.19-11.49,5.21,0,9,1.28,12.23,4.42l-4.68,4.63c-2.39-2.29-5.27-2.61-7.77-2.61-3.94,0-5.85,2.18-5.85,4.79a3.65,3.65,0,0,0,1.12,2.71,6.51,6.51,0,0,0,3.51,1.49l4.47.64c3.46.48,5.64,1.44,7.23,2.93,2,1.91,2.93,4.68,2.93,8C188.46,376.59,182.35,380.74,174.42,380.74Z" transform="translate(-155.28 -221.65)"/><path class="cls-2" d="M211.39,377.34a11.49,11.49,0,0,1-8.62,3.4,11.36,11.36,0,0,1-8.56-3.4c-2.5-2.61-3.14-5.75-3.14-10.8s.64-8.14,3.14-10.75a11.36,11.36,0,0,1,8.56-3.4,11.49,11.49,0,0,1,8.62,3.4c2.5,2.61,3.14,5.75,3.14,10.75S213.89,374.73,211.39,377.34ZM206,359.84a4.37,4.37,0,0,0-3.24-1.22,4.25,4.25,0,0,0-3.19,1.22c-1.44,1.44-1.6,3.83-1.6,6.7s.16,5.32,1.6,6.75a4.25,4.25,0,0,0,3.19,1.22,4.37,4.37,0,0,0,3.24-1.22c1.44-1.44,1.6-3.88,1.6-6.75S207.45,361.27,206,359.84Z" transform="translate(-155.28 -221.65)"/><path class="cls-2" d="M226.23,358.77v21.65h-6.91V358.77h-2.87v-5.27h2.87V350c0-3.94,2.45-7.93,8.09-7.93h3.94V348h-2.71c-1.65,0-2.39.9-2.39,2.5v3h5.11v5.27Z" transform="translate(-155.28 -221.65)"/><path class="cls-2" d="M242.66,380.42c-5.64,0-8-4-8-7.93V358.77h-2.93v-5.27h2.93v-8.19h6.92v8.19h4.89v5.27h-4.89v13.3c0,1.6.74,2.5,2.39,2.5h2.5v5.85Z" transform="translate(-155.28 -221.65)"/><path class="cls-2" d="M277.88,380.42h-5.69L266.39,363l-5.8,17.39H254.9l-8.51-27.71h7.34l4.47,17.13,5.64-17.13h5.05l5.69,17.13L279,352.71h7.29Z" transform="translate(-155.28 -221.65)"/><path class="cls-2" d="M302,380.42V378a8.42,8.42,0,0,1-6.81,2.66c-3.14,0-5.43-.8-7.07-2.45A8.88,8.88,0,0,1,285.8,372c0-4.42,3-8,9.47-8h6.54V362.6c0-3-1.49-4.36-5.16-4.36-2.66,0-3.88.64-5.32,2.29l-4.42-4.31c2.71-3,5.37-3.83,10-3.83,7.77,0,11.81,3.3,11.81,9.79v18.25Zm-.16-11.7h-5.48c-2.5,0-3.88,1.17-3.88,3.14s1.28,3.19,4,3.19c1.91,0,3.14-.16,4.36-1.33.74-.69,1-1.81,1-3.51Z" transform="translate(-155.28 -221.65)"/><path class="cls-2" d="M321.33,380.42c-5.69,0-8.08-4-8.08-7.93V342.55h6.92v29.52c0,1.65.69,2.5,2.45,2.5h2.66v5.85Z" transform="translate(-155.28 -221.65)"/><path class="cls-2" d="M344.79,380.42,338,368.88l-2.93,3.3v8.25h-6.91V342.55h6.91V364l9.2-11.33h8.35l-9.89,11.17,10.64,16.54Z" transform="translate(-155.28 -221.65)"/><path class="cls-1" d="M365.92,383.5V347.69h4.25V383.5Z" transform="translate(-155.28 -221.65)"/><path class="cls-1" d="M399.19,378.8a7.3,7.3,0,0,1-5.16,1.87,6.49,6.49,0,0,1-5.58-2.5v2.25h-4.16V350.77h4.25v10.66a6.53,6.53,0,0,1,5.54-2.37,7.2,7.2,0,0,1,5.12,1.87c2.12,2.12,2.37,5.7,2.37,8.91S401.32,376.67,399.19,378.8Zm-6.25-15.95c-3.83,0-4.41,3.25-4.41,7s.58,7,4.41,7,4.37-3.29,4.37-7S396.78,362.85,392.95,362.85Z" transform="translate(-155.28 -221.65)"/><path class="cls-1" d="M416.6,380.42v-1.92a7,7,0,0,1-5.62,2.17c-2.62,0-4.37-.62-5.66-1.92a6.48,6.48,0,0,1-1.67-4.54c0-3.54,2.46-6.08,7.29-6.08h5.58v-1.5c0-2.66-1.33-4-4.62-4-2.33,0-3.46.54-4.62,2l-2.79-2.62c2-2.33,4.08-3,7.58-3,5.79,0,8.7,2.46,8.7,7.25v14.12Zm-.08-9.33h-5c-2.5,0-3.79,1.13-3.79,3s1.21,3,3.87,3c1.62,0,2.83-.12,4-1.21a4.25,4.25,0,0,0,.92-3.12Z" transform="translate(-155.28 -221.65)"/><path class="cls-1" d="M430.89,380.42c-4,0-5.79-2.71-5.79-5.83V350.77h4.25v23.57c0,1.62.58,2.46,2.29,2.46h1.87v3.62Z" transform="translate(-155.28 -221.65)"/><path class="cls-1" d="M434.51,380.42V377L445,363.1h-9.91v-3.79h15.16v3.37l-10.58,14h10.58v3.79Z" transform="translate(-155.28 -221.65)"/><path class="cls-1" d="M464.91,380.42v-1.92a7,7,0,0,1-5.62,2.17c-2.62,0-4.37-.62-5.66-1.92a6.48,6.48,0,0,1-1.67-4.54c0-3.54,2.46-6.08,7.29-6.08h5.58v-1.5c0-2.66-1.33-4-4.62-4-2.33,0-3.46.54-4.62,2l-2.79-2.62c2-2.33,4.08-3,7.58-3,5.79,0,8.7,2.46,8.7,7.25v14.12Zm-.08-9.33h-5c-2.5,0-3.79,1.13-3.79,3s1.21,3,3.87,3c1.62,0,2.83-.12,4-1.21a4.24,4.24,0,0,0,.92-3.12Zm-2.92-15.62H458.7l3.12-6.75h4.71Z" transform="translate(-155.28 -221.65)"/><path class="cls-1" d="M499.26,380.42V367.56c0-3.29-1.87-4.71-4.25-4.71a4.18,4.18,0,0,0-4.37,4.5v13.08H486.4V367.56c0-3.29-1.87-4.71-4.25-4.71s-4.37,1.46-4.37,4.71v12.87h-4.25V359.31h4.16v2.12a7.64,7.64,0,0,1,5.62-2.37,6.75,6.75,0,0,1,6,3.08,8,8,0,0,1,6.62-3.08,7.64,7.64,0,0,1,5.33,1.92,7.84,7.84,0,0,1,2.25,6v13.49Z" transform="translate(-155.28 -221.65)"/><path class="cls-1" d="M528.75,380.42V367.56c0-3.29-1.87-4.71-4.25-4.71s-4.37,1.46-4.37,4.71v12.87h-4.25V359.31H520v2.12a7.55,7.55,0,0,1,5.62-2.37,7.32,7.32,0,0,1,5.21,1.92,7.76,7.76,0,0,1,2.12,6v13.49Z" transform="translate(-155.28 -221.65)"/><path class="cls-1" d="M548.82,380.42v-1.92a7,7,0,0,1-5.62,2.17c-2.62,0-4.37-.62-5.66-1.92a6.48,6.48,0,0,1-1.67-4.54c0-3.54,2.46-6.08,7.29-6.08h5.58v-1.5c0-2.66-1.33-4-4.62-4-2.33,0-3.46.54-4.62,2l-2.79-2.62c2-2.33,4.08-3,7.58-3,5.79,0,8.7,2.46,8.7,7.25v14.12Zm-.08-9.33h-5c-2.5,0-3.79,1.13-3.79,3s1.21,3,3.87,3c1.62,0,2.83-.12,4-1.21a4.24,4.24,0,0,0,.92-3.12Z" transform="translate(-155.28 -221.65)"/><path class="cls-1" d="M580.26,378.8a7.2,7.2,0,0,1-5.12,1.87,6.57,6.57,0,0,1-5.54-2.42V389h-4.25V359.31h4.16v2.25a6.49,6.49,0,0,1,5.58-2.5,7.31,7.31,0,0,1,5.16,1.87c2.12,2.12,2.37,5.7,2.37,8.91S582.38,376.67,580.26,378.8ZM574,362.85c-3.83,0-4.41,3.25-4.41,7s.58,7,4.41,7,4.37-3.29,4.37-7S577.84,362.85,574,362.85Z" transform="translate(-155.28 -221.65)"/><path class="cls-1" d="M597.67,380.42v-1.92a7,7,0,0,1-5.62,2.17c-2.62,0-4.37-.62-5.66-1.92a6.48,6.48,0,0,1-1.67-4.54c0-3.54,2.46-6.08,7.29-6.08h5.58v-1.5c0-2.66-1.33-4-4.62-4-2.33,0-3.46.54-4.62,2l-2.79-2.62c2-2.33,4.08-3,7.58-3,5.79,0,8.7,2.46,8.7,7.25v14.12Zm-.08-9.33h-5c-2.5,0-3.79,1.13-3.79,3s1.21,3,3.87,3c1.62,0,2.83-.12,4-1.21a4.24,4.24,0,0,0,.92-3.12Z" transform="translate(-155.28 -221.65)"/><path class="cls-1" d="M612.58,380.42c-4,0-5.79-2.83-5.79-5.87V362.93h-2.42v-3.25h2.42v-6.41H611v6.41h4.08v3.25H611v11.41a2.15,2.15,0,0,0,2.33,2.46h1.75v3.62Z" transform="translate(-155.28 -221.65)"/><path class="cls-1" d="M625.07,384.63a6.84,6.84,0,0,1-1.54,2.62,5.86,5.86,0,0,1-4.33,1.54h-1.71V385h1.08c1.79,0,2.41-.54,3-2.25l1.17-3.29-7.37-20.11h4.5l5,14.87,4.91-14.87h4.54Z" transform="translate(-155.28 -221.65)"/></svg>